<svg width="50" height="50" viewBox="0 0 50 50" fill="none" xmlns="http://www.w3.org/2000/svg">
<ellipse cx="25" cy="25" rx="25" ry="25" fill="white"/>
<path d="M37.1682 24.9937C37.1682 26.2755 36.9545 27.5096 36.5636 28.6596L34.7136 26.8096C34.835 26.212 34.8959 25.6036 34.8954 24.9937V22.721C34.8954 22.4196 35.0152 22.1306 35.2283 21.9175C35.4414 21.7044 35.7304 21.5846 36.0318 21.5846C36.3332 21.5846 36.6222 21.7044 36.8353 21.9175C37.0484 22.1306 37.1682 22.4196 37.1682 22.721V24.9937ZM25.8045 34.0846C27.6636 34.0846 29.3909 33.5278 30.8318 32.5687L32.4636 34.2028C30.8398 35.3767 28.9346 36.1004 26.9409 36.3005V40.9028H33.7591C34.0605 40.9028 34.3495 41.0225 34.5626 41.2356C34.7757 41.4488 34.8954 41.7378 34.8954 42.0392C34.8954 42.3406 34.7757 42.6296 34.5626 42.8427C34.3495 43.0558 34.0605 43.1755 33.7591 43.1755H17.85C17.5486 43.1755 17.2596 43.0558 17.0465 42.8427C16.8334 42.6296 16.7136 42.3406 16.7136 42.0392C16.7136 41.7378 16.8334 41.4488 17.0465 41.2356C17.2596 41.0225 17.5486 40.9028 17.85 40.9028H24.6682V36.3005C21.8652 36.0188 19.2668 34.706 17.377 32.6168C15.4872 30.5275 14.4409 27.8108 14.4409 24.9937V22.721C14.4409 22.4196 14.5606 22.1306 14.7738 21.9175C14.9869 21.7044 15.2759 21.5846 15.5773 21.5846C15.8787 21.5846 16.1677 21.7044 16.3808 21.9175C16.5939 22.1306 16.7136 22.4196 16.7136 22.721V24.9937C16.7136 27.4048 17.6714 29.7171 19.3763 31.422C21.0812 33.1268 23.3935 34.0846 25.8045 34.0846ZM32.6227 13.6301V24.7187L30.35 22.446V13.6301C30.3552 12.4443 29.8969 11.3034 29.0728 10.4508C28.2487 9.59826 27.124 9.10148 25.9387 9.06649C24.7534 9.0315 23.6014 9.46107 22.7284 10.2635C21.8555 11.066 21.3306 12.1779 21.2659 13.3619L19.3455 11.4415C19.8658 9.91245 20.9118 8.61772 22.2973 7.78774C23.6829 6.95776 25.318 6.6464 26.9116 6.90909C28.5052 7.17178 29.9539 7.99147 30.9997 9.22224C32.0455 10.453 32.6207 12.015 32.6227 13.6301Z" fill="black"/>
<path d="M29.1818 30.9188L27.4818 29.2188C26.7923 29.4925 26.0463 29.5933 25.3089 29.5124C24.5714 29.4315 23.865 29.1714 23.2513 28.7547C22.6375 28.3379 22.1351 27.7773 21.7878 27.1218C21.4406 26.4662 21.259 25.7356 21.2591 24.9938V22.9983L18.9864 20.7256V24.9938C18.986 26.1877 19.2992 27.3607 19.8945 28.3956C20.4898 29.4305 21.3465 30.2909 22.3787 30.8908C23.411 31.4907 24.5826 31.809 25.7765 31.8139C26.9704 31.8188 28.1447 31.5102 29.1818 30.9188ZM11.3636 9.88923L38.6363 37.162L40.2454 35.5529L12.9727 8.28014L11.3636 9.88923Z" fill="black"/>
</svg>
