<svg width="50" height="50" viewBox="0 0 50 50" fill="none" xmlns="http://www.w3.org/2000/svg">
<ellipse cx="25.0001" cy="25" rx="25" ry="25" fill="white"/>
<path d="M22.3711 41.2927C20.2472 41.2927 18.2496 40.8898 16.3784 40.0839C14.5083 39.2769 12.8813 38.182 11.4972 36.799C10.1131 35.4161 9.0176 33.7907 8.21061 31.9229C7.40362 30.0551 7.00012 28.0581 7.00012 25.932C7.00012 23.8058 7.40362 21.8082 8.21061 19.9393C9.0176 18.0692 10.1126 16.4421 11.4955 15.058C12.8784 13.674 14.5043 12.5785 16.3733 11.7715C18.2422 10.9645 20.2398 10.561 22.366 10.561C23.5019 10.561 24.606 10.6765 25.6782 10.9076C26.7515 11.1386 27.7702 11.4818 28.7343 11.9371V13.839C27.7827 13.3359 26.7737 12.9478 25.7072 12.6746C24.6396 12.4037 23.5258 12.2683 22.366 12.2683C18.5814 12.2683 15.3586 13.5989 12.6974 16.26C10.0363 18.9211 8.7063 22.1434 8.70744 25.9268C8.70858 29.7102 10.0391 32.9331 12.6991 35.5954C15.3591 38.2576 18.5814 39.5876 22.366 39.5854C26.1505 39.5831 29.3734 38.2531 32.0345 35.5954C34.6957 32.9376 36.0257 29.7148 36.0245 25.9268C36.0245 25.1039 35.9539 24.3037 35.8128 23.5263C35.6717 22.7489 35.4668 21.9949 35.1982 21.2641H37.0301C37.2635 22.0017 37.4387 22.7546 37.556 23.5229C37.6732 24.2912 37.7318 25.0925 37.7318 25.9268C37.7318 28.053 37.3289 30.0506 36.523 31.9195C35.7172 33.7885 34.6228 35.415 33.2399 36.799C31.857 38.1831 30.231 39.2775 28.3621 40.0822C26.4931 40.8869 24.4961 41.2904 22.3711 41.2927ZM36.8782 16.5366V13.122H33.4635V11.4146H36.8782V8H38.5855V11.4146H42.0001V13.122H38.5855V16.5366H36.8782ZM28.0206 23.5639C28.5522 23.5639 29.0012 23.3778 29.3677 23.0056C29.7342 22.6334 29.9174 22.1821 29.9174 21.6517C29.9174 21.1213 29.7319 20.6717 29.3609 20.3029C28.9887 19.9376 28.5368 19.7549 28.0052 19.7549C27.4737 19.7549 27.0247 19.9404 26.6582 20.3115C26.2917 20.6825 26.1084 21.1338 26.1084 21.6654C26.1084 22.1969 26.2945 22.6465 26.6667 23.0141C27.0378 23.3807 27.4891 23.5639 28.0206 23.5639ZM16.7267 23.5639C17.2571 23.5639 17.7056 23.3778 18.0721 23.0056C18.4397 22.6334 18.6235 22.1821 18.6235 21.6517C18.6235 21.1202 18.4374 20.6706 18.0652 20.3029C17.693 19.9376 17.2417 19.7549 16.7113 19.7549C16.1798 19.7549 15.7308 19.9404 15.3643 20.3115C14.9978 20.6837 14.8145 21.135 14.8145 21.6654C14.8145 22.1969 15 22.6465 15.3711 23.0141C15.7433 23.3807 16.1952 23.5639 16.7267 23.5639ZM22.366 34.2654C24.0266 34.2654 25.5348 33.8163 26.8904 32.9183C28.2448 32.0191 29.267 30.8268 29.9567 29.3415H14.7752C15.4639 30.828 16.486 32.0202 17.8416 32.9183C19.1972 33.8163 20.7053 34.2642 22.366 34.2654Z" fill="black"/>
</svg>
