<svg width="50" height="50" viewBox="0 0 50 50" fill="none" xmlns="http://www.w3.org/2000/svg">
<ellipse cx="25" cy="25" rx="25" ry="25" fill="white"/>
<path d="M14.2499 12.0001C12.5923 12.0001 11.0026 12.6586 9.83046 13.8307C8.65836 15.0028 7.99988 16.5925 7.99988 18.2501V30.7501C7.99988 32.4077 8.65836 33.9974 9.83046 35.1695C11.0026 36.3416 12.5923 37.0001 14.2499 37.0001H24.6665C26.3241 37.0001 27.9138 36.3416 29.0859 35.1695C30.258 33.9974 30.9165 32.4077 30.9165 30.7501V30.0813L37.2436 34.4501C37.6345 34.7199 38.0917 34.8776 38.5658 34.9062C39.0399 34.9348 39.5127 34.8333 39.9333 34.6125C40.3538 34.3917 40.7059 34.0602 40.9515 33.6537C41.1972 33.2472 41.327 32.7813 41.3269 32.3063V16.6918C41.3266 16.217 41.1965 15.7513 40.9507 15.3451C40.7049 14.939 40.3528 14.6077 39.9323 14.3872C39.5119 14.1667 39.0392 14.0653 38.5653 14.094C38.0914 14.1227 37.6343 14.2804 37.2436 14.5501L30.9165 18.9168V18.2501C30.9165 16.5925 30.258 15.0028 29.0859 13.8307C27.9138 12.6586 26.3241 12.0001 24.6665 12.0001H14.2499ZM30.9165 21.4501L38.4269 16.2626C38.5051 16.2086 38.5966 16.1771 38.6915 16.1714C38.7863 16.1656 38.8809 16.186 38.965 16.2302C39.0492 16.2744 39.1196 16.3408 39.1687 16.4221C39.2178 16.5035 39.2437 16.5967 39.2436 16.6918V32.3063C39.2437 32.4014 39.2178 32.4946 39.1687 32.576C39.1196 32.6573 39.0492 32.7237 38.965 32.7679C38.8809 32.8121 38.7863 32.8324 38.6915 32.8267C38.5966 32.821 38.5051 32.7895 38.4269 32.7355L30.9165 27.548V21.4501ZM10.0832 18.2501C10.0832 17.145 10.5222 16.0852 11.3036 15.3038C12.085 14.5224 13.1448 14.0834 14.2499 14.0834H24.6665C25.7716 14.0834 26.8314 14.5224 27.6128 15.3038C28.3942 16.0852 28.8332 17.145 28.8332 18.2501V30.7501C28.8332 31.8552 28.3942 32.915 27.6128 33.6964C26.8314 34.4778 25.7716 34.9167 24.6665 34.9167H14.2499C13.1448 34.9167 12.085 34.4778 11.3036 33.6964C10.5222 32.915 10.0832 31.8552 10.0832 30.7501V18.2501Z" fill="black"/>
</svg>
