<svg width="auto" height="auto" viewBox="0 0 16 17" fill="none" xmlns="http://www.w3.org/2000/svg">
<path id="Vector" d="M7.563 0.761784C7.69333 0.841591 7.80376 0.96955 7.88122 1.13049C7.95867 1.29144 7.99989 1.47862 8 1.66985V15.6709C7.99968 15.862 7.95837 16.0489 7.88095 16.2097C7.80354 16.3705 7.69324 16.4984 7.56309 16.5783C7.43293 16.6582 7.28835 16.6868 7.1464 16.6607C7.00446 16.6346 6.87108 16.5548 6.762 16.4309L3.472 12.6707H1.75C1.28587 12.6707 0.840752 12.4248 0.512563 11.9872C0.184374 11.5496 0 10.956 0 10.3372L0 7.00358C0 5.71548 0.784 4.67007 1.75 4.67007H3.473L6.762 0.909795C6.87096 0.785656 7.0043 0.705742 7.14626 0.679511C7.28821 0.65328 7.43283 0.681831 7.563 0.761784ZM6.5 3.84335L4.238 6.42887C4.10215 6.58442 3.92906 6.67003 3.75 6.67022H1.75C1.6837 6.67022 1.62011 6.70534 1.57322 6.76786C1.52634 6.83038 1.5 6.91517 1.5 7.00358V10.3372C1.5 10.5212 1.612 10.6705 1.75 10.6705H3.75C3.929 10.6705 4.102 10.7559 4.238 10.9105L6.5 13.4974V3.84335ZM12.596 1.12581C12.7366 0.93853 12.9272 0.833336 13.126 0.833336C13.3248 0.833336 13.5154 0.93853 13.656 1.12581C14.3989 2.11638 14.9882 3.29238 15.3903 4.58665C15.7924 5.88092 15.9993 7.26812 15.9993 8.66904C15.9993 10.07 15.7924 11.4572 15.3903 12.7514C14.9882 14.0457 14.3989 15.2217 13.656 16.2123C13.5139 16.3891 13.3258 16.4855 13.1314 16.481C12.937 16.4765 12.7515 16.3716 12.614 16.1883C12.4765 16.0049 12.3978 15.7576 12.3945 15.4984C12.3911 15.2392 12.4634 14.9884 12.596 14.7988C13.1997 13.994 13.6785 13.0384 14.0052 11.9868C14.332 10.9352 14.5001 9.80801 14.5001 8.6697C14.5001 7.5314 14.332 6.40424 14.0052 5.3526C13.6785 4.30096 13.1997 3.34543 12.596 2.54058C12.4555 2.35307 12.3767 2.09888 12.3767 1.83386C12.3767 1.56884 12.4555 1.31333 12.596 1.12581ZM11.536 3.95402L11.535 3.95535C12.4724 5.20563 12.9989 6.90114 12.9989 8.66904C12.9989 10.4369 12.4724 12.1324 11.535 13.3827C11.4433 13.5144 11.3267 13.6106 11.1975 13.6613C11.0682 13.712 10.9311 13.7152 10.8006 13.6707C10.6701 13.6262 10.551 13.5356 10.4558 13.4084C10.3607 13.2812 10.293 13.1222 10.26 12.948C10.2267 12.7742 10.2291 12.5916 10.2669 12.4194C10.3047 12.2472 10.3766 12.0917 10.475 11.9693C10.8 11.5359 11.0579 11.0214 11.2338 10.4551C11.4097 9.88888 11.5003 9.28196 11.5003 8.66904C11.5003 8.05612 11.4097 7.4492 11.2338 6.88294C11.0579 6.31668 10.8 5.80217 10.475 5.36879C10.3343 5.18118 10.2553 4.92673 10.2553 4.66141C10.2553 4.39609 10.3343 4.14163 10.475 3.95402C10.6157 3.76641 10.8065 3.66101 11.0055 3.66101C11.2045 3.66101 11.3953 3.76641 11.536 3.95402Z" fill="white"/>
</svg>
